<svg width="294" height="59" viewBox="0 0 294 59" fill="none" xmlns="http://www.w3.org/2000/svg">
<rect y="34" width="29" height="25" fill="#9333EA"/>
<path d="M60.3097 23.2756C60.196 22.1297 59.7083 21.2396 58.8466 20.6051C57.9848 19.9706 56.8153 19.6534 55.3381 19.6534C54.3343 19.6534 53.4867 19.7955 52.7955 20.0795C52.1042 20.3542 51.5739 20.7377 51.2045 21.2301C50.8447 21.7225 50.6648 22.2812 50.6648 22.9062C50.6458 23.4271 50.7547 23.8816 50.9915 24.2699C51.2377 24.6581 51.5739 24.9943 52 25.2784C52.4261 25.553 52.9186 25.7945 53.4773 26.0028C54.036 26.2017 54.6326 26.3722 55.267 26.5142L57.8807 27.1392C59.1496 27.4233 60.3144 27.8021 61.375 28.2756C62.4356 28.7491 63.3542 29.3314 64.1307 30.0227C64.9072 30.714 65.5085 31.5284 65.9347 32.4659C66.3703 33.4034 66.5928 34.4782 66.6023 35.6903C66.5928 37.4706 66.1383 39.0142 65.2386 40.321C64.3485 41.6184 63.0606 42.6269 61.375 43.3466C59.6989 44.0568 57.6771 44.4119 55.3097 44.4119C52.9612 44.4119 50.9157 44.0521 49.1733 43.3324C47.4403 42.6127 46.0862 41.5473 45.1108 40.1364C44.1449 38.7159 43.6383 36.9593 43.5909 34.8665H49.5426C49.6089 35.8419 49.8883 36.6562 50.3807 37.3097C50.8826 37.9536 51.5502 38.4413 52.3835 38.7727C53.2263 39.0947 54.178 39.2557 55.2386 39.2557C56.2803 39.2557 57.1847 39.1042 57.9517 38.8011C58.7282 38.4981 59.3295 38.0767 59.7557 37.5369C60.1818 36.9972 60.3949 36.3769 60.3949 35.6761C60.3949 35.0227 60.2008 34.4735 59.8125 34.0284C59.4337 33.5833 58.875 33.2045 58.1364 32.892C57.4072 32.5795 56.5123 32.2955 55.4517 32.0398L52.2841 31.2443C49.8314 30.6477 47.8949 29.715 46.4744 28.446C45.054 27.1771 44.3485 25.4678 44.358 23.3182C44.3485 21.5568 44.8172 20.018 45.7642 18.7017C46.7206 17.3854 48.0322 16.358 49.6989 15.6193C51.3655 14.8807 53.2595 14.5114 55.3807 14.5114C57.5398 14.5114 59.4242 14.8807 61.0341 15.6193C62.6534 16.358 63.9129 17.3854 64.8125 18.7017C65.7121 20.018 66.1761 21.5426 66.2045 23.2756H60.3097ZM70.7393 44V14.9091H90.3416V19.9801H76.8899V26.9119H89.3331V31.983H76.8899V38.929H90.3984V44H70.7393ZM100.175 22.1818L104.18 29.8097L108.286 22.1818H114.493L108.172 33.0909L114.663 44H108.484L104.18 36.4574L99.9474 44H93.6974L100.175 33.0909L93.9247 22.1818H100.175ZM118.087 52.1818V22.1818H124.053V25.8466H124.322C124.588 25.2595 124.971 24.6629 125.473 24.0568C125.984 23.4413 126.647 22.9299 127.462 22.5227C128.286 22.1061 129.308 21.8977 130.53 21.8977C132.121 21.8977 133.589 22.3144 134.933 23.1477C136.278 23.9716 137.353 25.2169 138.158 26.8835C138.963 28.5407 139.365 30.6193 139.365 33.1193C139.365 35.553 138.972 37.608 138.186 39.2841C137.41 40.9508 136.349 42.215 135.004 43.0767C133.669 43.929 132.173 44.3551 130.516 44.3551C129.341 44.3551 128.342 44.161 127.518 43.7727C126.704 43.3845 126.036 42.8968 125.516 42.3097C124.995 41.7131 124.597 41.1117 124.322 40.5057H124.138V52.1818H118.087ZM124.01 33.0909C124.01 34.3883 124.19 35.5199 124.55 36.4858C124.91 37.4517 125.43 38.2045 126.112 38.7443C126.794 39.2746 127.623 39.5398 128.598 39.5398C129.583 39.5398 130.416 39.2699 131.098 38.7301C131.78 38.1809 132.296 37.4233 132.646 36.4574C133.006 35.482 133.186 34.3598 133.186 33.0909C133.186 31.8314 133.011 30.7235 132.661 29.767C132.31 28.8106 131.794 28.0625 131.112 27.5227C130.43 26.983 129.592 26.7131 128.598 26.7131C127.613 26.7131 126.78 26.9735 126.098 27.4943C125.426 28.0152 124.91 28.7538 124.55 29.7102C124.19 30.6667 124.01 31.7936 124.01 33.0909ZM149.45 14.9091V44H143.399V14.9091H149.45ZM164.156 44.4261C161.949 44.4261 160.041 43.9574 158.431 43.0199C156.831 42.0729 155.595 40.7566 154.724 39.071C153.853 37.3759 153.417 35.411 153.417 33.1761C153.417 30.9223 153.853 28.9527 154.724 27.267C155.595 25.572 156.831 24.2557 158.431 23.3182C160.041 22.3712 161.949 21.8977 164.156 21.8977C166.362 21.8977 168.265 22.3712 169.866 23.3182C171.476 24.2557 172.716 25.572 173.587 27.267C174.459 28.9527 174.894 30.9223 174.894 33.1761C174.894 35.411 174.459 37.3759 173.587 39.071C172.716 40.7566 171.476 42.0729 169.866 43.0199C168.265 43.9574 166.362 44.4261 164.156 44.4261ZM164.184 39.7386C165.188 39.7386 166.026 39.4545 166.698 38.8864C167.371 38.3087 167.877 37.5227 168.218 36.5284C168.568 35.5341 168.744 34.4025 168.744 33.1335C168.744 31.8646 168.568 30.733 168.218 29.7386C167.877 28.7443 167.371 27.9583 166.698 27.3807C166.026 26.803 165.188 26.5142 164.184 26.5142C163.171 26.5142 162.318 26.803 161.627 27.3807C160.945 27.9583 160.429 28.7443 160.079 29.7386C159.738 30.733 159.567 31.8646 159.567 33.1335C159.567 34.4025 159.738 35.5341 160.079 36.5284C160.429 37.5227 160.945 38.3087 161.627 38.8864C162.318 39.4545 163.171 39.7386 164.184 39.7386ZM178.829 44V22.1818H184.695V25.9886H184.923C185.32 24.6345 185.988 23.6117 186.925 22.9205C187.863 22.2197 188.942 21.8693 190.164 21.8693C190.467 21.8693 190.794 21.8883 191.144 21.9261C191.495 21.964 191.802 22.0161 192.067 22.0824V27.4517C191.783 27.3665 191.39 27.2907 190.888 27.2244C190.387 27.1581 189.927 27.125 189.511 27.125C188.621 27.125 187.825 27.3191 187.124 27.7074C186.433 28.0862 185.884 28.6165 185.477 29.2983C185.079 29.9801 184.88 30.7661 184.88 31.6562V44H178.829ZM200.793 44.4119C199.401 44.4119 198.16 44.1705 197.071 43.6875C195.982 43.1951 195.12 42.4706 194.486 41.5142C193.861 40.5483 193.548 39.3456 193.548 37.9062C193.548 36.6941 193.771 35.6761 194.216 34.8523C194.661 34.0284 195.267 33.3655 196.034 32.8636C196.801 32.3617 197.672 31.983 198.648 31.7273C199.633 31.4716 200.665 31.2917 201.744 31.1875C203.013 31.0549 204.036 30.9318 204.812 30.8182C205.589 30.6951 206.152 30.5152 206.503 30.2784C206.853 30.0417 207.028 29.6913 207.028 29.2273V29.142C207.028 28.2424 206.744 27.5464 206.176 27.054C205.617 26.5616 204.822 26.3153 203.79 26.3153C202.701 26.3153 201.834 26.5568 201.19 27.0398C200.546 27.5133 200.12 28.1098 199.912 28.8295L194.315 28.375C194.599 27.0492 195.158 25.9034 195.991 24.9375C196.825 23.9621 197.9 23.214 199.216 22.6932C200.542 22.1629 202.076 21.8977 203.818 21.8977C205.03 21.8977 206.19 22.0398 207.298 22.3239C208.416 22.608 209.405 23.0483 210.267 23.6449C211.138 24.2415 211.825 25.0085 212.327 25.946C212.829 26.8741 213.08 27.9867 213.08 29.2841V44H207.341V40.9744H207.17C206.82 41.6562 206.351 42.2576 205.764 42.7784C205.177 43.2898 204.472 43.6922 203.648 43.9858C202.824 44.2699 201.872 44.4119 200.793 44.4119ZM202.526 40.2358C203.416 40.2358 204.202 40.0606 204.884 39.7102C205.565 39.3504 206.1 38.8674 206.489 38.2614C206.877 37.6553 207.071 36.9687 207.071 36.2017V33.8864C206.882 34.0095 206.621 34.1231 206.29 34.2273C205.968 34.322 205.603 34.4119 205.196 34.4972C204.789 34.5729 204.382 34.6439 203.974 34.7102C203.567 34.767 203.198 34.8191 202.866 34.8665C202.156 34.9706 201.536 35.1364 201.006 35.3636C200.475 35.5909 200.063 35.8987 199.77 36.2869C199.476 36.6657 199.33 37.1392 199.33 37.7074C199.33 38.5312 199.628 39.161 200.224 39.5966C200.83 40.0227 201.598 40.2358 202.526 40.2358ZM229.379 22.1818V26.7273H216.24V22.1818H229.379ZM219.223 16.9545H225.274V37.2955C225.274 37.8542 225.359 38.2898 225.53 38.6023C225.7 38.9053 225.937 39.1184 226.24 39.2415C226.553 39.3646 226.912 39.4261 227.32 39.4261C227.604 39.4261 227.888 39.4025 228.172 39.3551C228.456 39.2983 228.674 39.2557 228.825 39.2273L229.777 43.7301C229.474 43.8248 229.048 43.9337 228.499 44.0568C227.949 44.1894 227.282 44.2699 226.496 44.2983C225.037 44.3551 223.759 44.161 222.661 43.7159C221.571 43.2708 220.724 42.5795 220.118 41.642C219.512 40.7045 219.214 39.5208 219.223 38.0909V16.9545ZM233.321 44V22.1818H239.372V44H233.321ZM236.361 19.3693C235.461 19.3693 234.689 19.071 234.045 18.4744C233.411 17.8684 233.094 17.1439 233.094 16.3011C233.094 15.4678 233.411 14.7528 234.045 14.1562C234.689 13.5502 235.461 13.2472 236.361 13.2472C237.26 13.2472 238.027 13.5502 238.662 14.1562C239.306 14.7528 239.628 15.4678 239.628 16.3011C239.628 17.1439 239.306 17.8684 238.662 18.4744C238.027 19.071 237.26 19.3693 236.361 19.3693ZM254.077 44.4261C251.871 44.4261 249.963 43.9574 248.353 43.0199C246.753 42.0729 245.517 40.7566 244.646 39.071C243.774 37.3759 243.339 35.411 243.339 33.1761C243.339 30.9223 243.774 28.9527 244.646 27.267C245.517 25.572 246.753 24.2557 248.353 23.3182C249.963 22.3712 251.871 21.8977 254.077 21.8977C256.284 21.8977 258.187 22.3712 259.788 23.3182C261.397 24.2557 262.638 25.572 263.509 27.267C264.38 28.9527 264.816 30.9223 264.816 33.1761C264.816 35.411 264.38 37.3759 263.509 39.071C262.638 40.7566 261.397 42.0729 259.788 43.0199C258.187 43.9574 256.284 44.4261 254.077 44.4261ZM254.106 39.7386C255.11 39.7386 255.948 39.4545 256.62 38.8864C257.292 38.3087 257.799 37.5227 258.14 36.5284C258.49 35.5341 258.665 34.4025 258.665 33.1335C258.665 31.8646 258.49 30.733 258.14 29.7386C257.799 28.7443 257.292 27.9583 256.62 27.3807C255.948 26.803 255.11 26.5142 254.106 26.5142C253.093 26.5142 252.24 26.803 251.549 27.3807C250.867 27.9583 250.351 28.7443 250.001 29.7386C249.66 30.733 249.489 31.8646 249.489 33.1335C249.489 34.4025 249.66 35.5341 250.001 36.5284C250.351 37.5227 250.867 38.3087 251.549 38.8864C252.24 39.4545 253.093 39.7386 254.106 39.7386ZM274.802 31.3864V44H268.751V22.1818H274.518V26.0312H274.773C275.256 24.7623 276.066 23.7585 277.202 23.0199C278.339 22.2718 279.717 21.8977 281.336 21.8977C282.851 21.8977 284.172 22.2292 285.299 22.892C286.426 23.5549 287.302 24.5019 287.927 25.733C288.552 26.9545 288.864 28.4129 288.864 30.108V44H282.813V31.1875C282.823 29.8523 282.482 28.8106 281.79 28.0625C281.099 27.3049 280.147 26.9261 278.935 26.9261C278.121 26.9261 277.401 27.1013 276.776 27.4517C276.161 27.8021 275.678 28.3134 275.327 28.9858C274.987 29.6487 274.811 30.4489 274.802 31.3864Z" fill="#9333EA"/>
<circle cx="14.5" cy="14.5" r="14.5" fill="#9333EA"/>
</svg>
