<?xml version="1.0" encoding="UTF-8" standalone="no"?> <svg id="icons" xmlns="http://www.w3.org/2000/svg" viewBox="0 0 340 340"><path d="M115.123,216.824a21.543,21.543,0,1,0,42.06,5.116Z" style="fill:#ffbe5d"/><path d="M244.666,200.839a21.544,21.544,0,1,1-39.777,14.6Z" style="fill:#ffbe5d"/><path d="M62.655,193.546s39.249,45.3,119.332,36.019,107.938-62.343,107.938-62.343Z" style="fill:#3c3c4f"/><path d="M189.357,149.479,108.042,158.9c-24.522,5.855-44.924,17.307-55.684,24.2a6.6,6.6,0,0,0,.321,11.278c47.461,27.262,126.961,14.93,126.961,14.93a305.72,305.72,0,0,0,44.838-7.691C233.8,178.383,225.349,160.1,189.357,149.479Z" style="fill:#7eaaea"/><path d="M54.321,105.7A44.238,44.238,0,0,1,81.947,26.91a44.762,44.762,0,0,1,4.523.228S108,48.148,104.7,75.985,60.58,110.71,54.321,105.7Z" style="fill:#ffbb64"/><path d="M263.765,61.425A25.95,25.95,0,0,1,267.146,31l7.293-5.567a25.955,25.955,0,0,1,32.241,7.079l3.6,6.171S308.07,55.371,293.91,63.708,263.765,61.425,263.765,61.425Z" style="fill:#ccd4ff"/><path d="M256.171,308.963a40.229,40.229,0,0,1-4.927-10.484l9.619-39.845a40.484,40.484,0,0,1,39.276-11.028s30.525,33.218,12.625,56.223S256.171,308.963,256.171,308.963Z" style="fill:#ffe4a9"/><path d="M260.87,258.641a40.422,40.422,0,0,0-9.621,39.837,20.593,20.593,0,0,0,9.621-39.837Z" style="fill:#fca66b"/><path d="M300.138,247.608a18.454,18.454,0,0,0,26.83,22.942A40.5,40.5,0,0,0,300.138,247.608Z" style="fill:#fca66b"/><circle cx="298.604" cy="296.549" r="14.159" style="fill:#fca66b"/><path d="M199.046,45.563l4-13.634a.988.988,0,0,1,1.9,0l4,13.634a13.268,13.268,0,0,0,7.489,8.455l7.74,3.33a.989.989,0,0,1,0,1.816l-7.912,3.4a13.268,13.268,0,0,0-7.4,8.16l-3.924,12.315a.989.989,0,0,1-1.884,0l-3.924-12.315a13.271,13.271,0,0,0-7.4-8.16l-7.912-3.4a.989.989,0,0,1,0-1.816l7.74-3.33A13.268,13.268,0,0,0,199.046,45.563Z" style="fill:#c5e6f9"/><path d="M45.4,276.159l-6.473-11.846a1.2,1.2,0,0,1,1.624-1.624l11.846,6.473a13.269,13.269,0,0,0,11.275.683l7.378-2.939A1.2,1.2,0,0,1,72.6,268.46l-3.008,7.552a13.266,13.266,0,0,0,.538,11l5.633,10.9a1.2,1.2,0,0,1-1.612,1.612l-10.9-5.633a13.27,13.27,0,0,0-11-.538l-7.552,3.008a1.2,1.2,0,0,1-1.554-1.554l2.939-7.378A13.269,13.269,0,0,0,45.4,276.159Z" style="fill:#c5e6f9"/><path d="M330.344,286.723a40.275,40.275,0,0,0-3.506-16.49l-14.279-12.1c-.731,17.689-8.413,51.41-56.383,50.828a40.417,40.417,0,0,0,74.168-22.237Z" style="fill:#fca66b"/><path d="M310.278,38.687,307.7,34.27c-1.465,12.385-8.088,22.2-18.783,26.889-8.787,3.855-18.777,2.141-25.148.262a25.94,25.94,0,0,0,46.506-22.734Z" style="fill:#8898d3"/><path d="M86.794,27.18c5.677,6.665,11.282,28.831,8.467,50.494L54.326,105.693a44.016,44.016,0,0,0,22.274,9.37l.024-.011A44.23,44.23,0,1,0,86.794,27.18Z" style="fill:#ff9950"/><path d="M17.053,124.607c-3.9,0-6.979-1.082-8.935-3.53C3.024,114.7,7.863,102.73,22.5,85.508a3.5,3.5,0,0,1,5.334,4.533c-13.445,15.818-15.885,24.614-14.246,26.668,3.562,4.459,31.577-4.292,72.437-36.919,17.147-13.692,31.969-28.127,41.738-40.646,10.838-13.89,11.474-20.35,10.295-21.826-1.214-1.521-7.883-2.3-24.434,5.623a3.5,3.5,0,1,1-3.024-6.313c17.214-8.244,28.293-9.483,32.928-3.678,4.548,5.7,1.1,15.958-10.246,30.5-10.1,12.938-25.327,27.786-42.889,41.809C68.157,103.016,34.465,124.605,17.053,124.607Z" style="fill:#ffee71"/><path d="M297.562,154.7c-12.051-4.251-34.531-10.737-59.742-10.832l-26.986,3.126-27.615,26.38s40.985,1.073,41.258,28.243c25.1-6.2,55.293-17.1,75.351-35.864A6.6,6.6,0,0,0,297.562,154.7Z" style="fill:#5c77bd"/><path d="M168.385,112.132c-51.595,5.976-60.343,46.766-60.343,46.766,6.844,6.737,15.8,10.811,24.947,13.219,0,0,35.042,7.957,57.326-17.382s9.063-40.634,9.063-40.634A80.908,80.908,0,0,0,168.385,112.132Z" style="fill:#d4e4fc"/><path d="M158.733,133.039a3.5,3.5,0,0,1-.812-6.9q.678-.162,1.374-.307a3.5,3.5,0,1,1,1.425,6.853q-.593.123-1.169.262A3.535,3.535,0,0,1,158.733,133.039Z" style="fill:#fff"/><path d="M130.98,154.735a3.5,3.5,0,0,1-3.2-4.908,44.735,44.735,0,0,1,15.863-17.6,3.5,3.5,0,1,1,3.806,5.875,38.352,38.352,0,0,0-13.271,14.568A3.51,3.51,0,0,1,130.98,154.735Z" style="fill:#fff"/><path d="M237.82,143.866S227.38,121.8,199.378,114.1c-.693,16.07-8.32,55.72-66.389,58.012,20.853,5.49,42.685,2.323,42.685,2.323S221.018,170.512,237.82,143.866Z" style="fill:#909ed1"/><path d="M283.475,182.334c.012-.014.019-.03.031-.045a113.246,113.246,0,0,0,18.713-13.982,10.1,10.1,0,0,0-3.492-16.909c-11.249-3.969-33.6-10.566-58.81-11.008a63.912,63.912,0,0,0-15.287-17.371c-10.473-8.333-28.8-17.592-56.648-14.364s-43.574,16.426-51.864,26.932a63.924,63.924,0,0,0-10.912,20.406c-24.438,6.192-44.692,17.724-54.735,24.159a10.1,10.1,0,0,0,.464,17.26,113.229,113.229,0,0,0,21.391,9.322,135.227,135.227,0,0,0,38.539,19.807,25.033,25.033,0,0,0,47.3,7.74c.877.013,1.75.031,2.638.031a187.451,187.451,0,0,0,21.581-1.27,185.21,185.21,0,0,0,25.01-4.618A25.035,25.035,0,0,0,251.1,210,135.2,135.2,0,0,0,283.475,182.334ZM168.788,115.608c42.737-4.949,60.857,20.992,64.955,28.061-16.507,23.357-57.946,27.244-58.373,27.281-.065.006-.132.013-.2.023-.423.061-41.789,5.767-63.207-13.2C114.345,149.943,126.054,120.558,168.788,115.608ZM54.422,191.342a3.1,3.1,0,0,1-1.583-2.649,3.01,3.01,0,0,1,1.407-2.647c9.7-6.213,29.258-17.353,52.786-23.293,15.019,13.541,37.895,16.129,53.189,16.129a121.164,121.164,0,0,0,15.856-.967c2.977-.271,45.606-4.582,63.6-30.527,24.266.405,45.857,6.779,56.719,10.611a3.013,3.013,0,0,1,1.975,2.255,3.1,3.1,0,0,1-.936,2.94c-38.6,36.1-117.275,42.562-118.066,42.623-.088.007-.178.018-.267.032C178.321,205.969,100.251,217.666,54.422,191.342Zm83.347,49.848a18.072,18.072,0,0,1-19.259-12.362,157.839,157.839,0,0,0,31.683,5.149A18.015,18.015,0,0,1,137.769,241.19Zm90.42-11.454a17.981,17.981,0,0,1-12.944-3.538A157.367,157.367,0,0,0,244,214.119,18.077,18.077,0,0,1,228.189,229.736Zm-46.6-3.648c-38.932,4.509-67.978-4.2-87.2-13.934a251.153,251.153,0,0,0,43.253,3.507,303.332,303.332,0,0,0,42.411-2.875c3.554-.282,45.329-3.9,83.24-20.194C246.821,206.436,220.531,221.577,181.584,226.088Z" style="fill:#3c3c4f"/><path d="M256.834,48.524a29.437,29.437,0,1,0,29.437-29.437A29.471,29.471,0,0,0,256.834,48.524ZM303.292,33.93a17.04,17.04,0,0,1-13.658,3.752,3.5,3.5,0,0,0-1.444,6.849,21.047,21.047,0,0,0,4.092.357A23.672,23.672,0,0,0,307,39.946a22.44,22.44,0,1,1-39.012-4.4c.5,5.534,2.121,13.229,6.956,19.2a3.5,3.5,0,1,0,5.442-4.4c-6.047-7.475-5.655-19.284-5.554-21.112a22.383,22.383,0,0,1,28.46,4.7Z" style="fill:#3c3c4f"/><path d="M329.921,268.609a44.245,44.245,0,0,0-28.866-24.377c-.012,0-.022-.01-.034-.013a44.042,44.042,0,0,0-11.1-1.415,43.564,43.564,0,0,0-31.58,13.4c-.034.036-.057.077-.089.114a43.9,43.9,0,0,0-10.376,43.113c.007.023.007.046.014.068A43.927,43.927,0,1,0,330.033,268.8C330,268.734,329.956,268.676,329.921,268.609Zm-27.514-16.636a37.309,37.309,0,0,1,19.9,17.017,14.965,14.965,0,0,1-19.9-17.017Zm-12.481,71.668a36.7,36.7,0,0,1-35.318-26.133c0-.016,0-.031-.01-.047a36.923,36.923,0,0,1,7.194-34.629,17.108,17.108,0,0,1,8.121,21.693,3.5,3.5,0,1,0,6.483,2.64,24.1,24.1,0,0,0-9.373-29.393,36.56,36.56,0,0,1,22.9-7.968,37.306,37.306,0,0,1,5.693.455,21.93,21.93,0,0,0,29.459,25.151,36.945,36.945,0,0,1-35.152,48.231Z" style="fill:#3c3c4f"/><path d="M298.6,278.889a17.66,17.66,0,1,0,17.659,17.659A17.679,17.679,0,0,0,298.6,278.889Zm0,28.319a10.66,10.66,0,1,1,10.659-10.66A10.672,10.672,0,0,1,298.6,307.208Z" style="fill:#3c3c4f"/><path d="M190.345,65.782a9.768,9.768,0,0,1,5.448,6.009l4.866,15.27a3.5,3.5,0,0,0,6.67,0l4.866-15.27a9.762,9.762,0,0,1,5.447-6.008l10.022-4.312a3.5,3.5,0,0,0,0-6.43l-9.85-4.238a9.742,9.742,0,0,1-5.514-6.225L207.352,27.71a3.5,3.5,0,0,0-6.716,0l-4.948,16.868h0a9.742,9.742,0,0,1-5.514,6.225l-9.85,4.238a3.5,3.5,0,0,0,0,6.43Zm2.595-8.549a16.716,16.716,0,0,0,9.465-10.685h0l1.589-5.418,1.589,5.418a16.713,16.713,0,0,0,9.465,10.685l2.377,1.023-2.549,1.1a16.762,16.762,0,0,0-9.351,10.313l-1.531,4.805-1.531-4.805a16.763,16.763,0,0,0-9.351-10.313l-2.549-1.1Z" style="fill:#3c3c4f"/><path d="M38.858,296.1a3.5,3.5,0,0,0,4.547,4.547l10.135-4.038a9.772,9.772,0,0,1,8.1.4l14.238,7.357a3.5,3.5,0,0,0,4.716-4.716l-7.356-14.239a9.762,9.762,0,0,1-.4-8.1l4.038-10.135a3.5,3.5,0,0,0-4.547-4.547l-9.962,3.969a9.739,9.739,0,0,1-8.3-.5l-15.426-8.429a3.5,3.5,0,0,0-4.75,4.75l8.429,15.425a9.741,9.741,0,0,1,.5,8.3Zm11.856-23.867a16.718,16.718,0,0,0,14.248.864l2.4-.958-1.027,2.577a16.757,16.757,0,0,0,.681,13.9l2.315,4.481-4.481-2.315a16.764,16.764,0,0,0-13.9-.681l-2.578,1.027.957-2.4a16.721,16.721,0,0,0-.862-14.248l-2.707-4.955Z" style="fill:#3c3c4f"/><path d="M17.053,124.607c9.248,0,23.089-6.092,37.367-14.464a47.3,47.3,0,0,0,27.527,8.74,47.726,47.726,0,0,0,43.865-66.554c2.718-3.033,5.227-6.005,7.47-8.879,11.347-14.542,14.794-24.8,10.246-30.5-4.635-5.8-15.714-4.566-32.928,3.678a3.5,3.5,0,1,0,3.024,6.313c16.551-7.926,23.22-7.144,24.434-5.623,1.179,1.476.543,7.936-10.295,21.826C117.994,51.663,103.172,66.1,86.025,79.79a310.252,310.252,0,0,1-31.012,22,47.008,47.008,0,0,1-6.023-6.7,40.738,40.738,0,0,1,62.6-51.894,3.5,3.5,0,0,0,5.092-4.8A47.3,47.3,0,0,0,81.947,23.41,47.74,47.74,0,0,0,43.334,99.22a57.647,57.647,0,0,0,5.4,6.286c-20.014,11.379-32.814,14.12-35.145,11.2-1.639-2.054.8-10.85,14.246-26.668A3.5,3.5,0,0,0,22.5,85.508C7.863,102.73,3.024,114.7,8.118,121.077,10.074,123.525,13.154,124.607,17.053,124.607Zm73.34-39.348a314.983,314.983,0,0,0,30.13-27.238,40.746,40.746,0,0,1-59.478,48.093A327.118,327.118,0,0,0,90.393,85.259Z" style="fill:#3c3c4f"/><path d="M265.335,292.238a3.831,3.831,0,1,0,3.831,3.831A3.831,3.831,0,0,0,265.335,292.238Z" style="fill:#3c3c4f"/><path d="M288.92,64.99a3.831,3.831,0,1,0-3.83-3.831A3.831,3.831,0,0,0,288.92,64.99Z" style="fill:#3c3c4f"/></svg>