<?xml version="1.0" encoding="utf-8"?>
<!-- Generator: Adobe Illustrator 26.2.1, SVG Export Plug-In . SVG Version: 6.00 Build 0)  -->
<svg version="1.1" id="One_Color" xmlns="http://www.w3.org/2000/svg" xmlns:xlink="http://www.w3.org/1999/xlink" x="0px" y="0px"
	 viewBox="0 0 64 64" enable-background="new 0 0 64 64" xml:space="preserve">
<g id="XMLID_00000007416493617122564710000007184479967700988836_">
	<g>
		<path fill="#8645BF" d="M21.08,49.28c0.14,2.12,0.11,7.93-3.65,12.1l-3.58-3.23l-0.01-0.01c0.25-0.22,0.49-0.45,0.72-0.69
			C17.43,54.6,19.54,51.83,21.08,49.28z"/>
		<path fill="#8645BF" d="M1.09,46.64c3.77-4.18,9.56-4.8,11.67-4.88c-2.38,1.8-4.93,4.17-7.47,7.32c-0.21,0.25-0.42,0.51-0.63,0.78
			L1.09,46.64z"/>
		<path fill="#8645BF" d="M18.64,43.61c1.23,1.11,1.32,3.01,0.21,4.24c-1.11,1.23-3,1.33-4.23,0.22s-1.33-3.01-0.22-4.24
			C15.51,42.6,17.41,42.5,18.64,43.61z"/>
		<path fill="#8645BF" d="M38,1c13.81,0,25,11.19,25,25c0,7.19-3.03,13.67-7.89,18.23C53.85,42.86,52.02,42,50,42
			c-3.87,0-7,3.13-7,7c0,0.5,0.05,0.99,0.15,1.46C41.49,50.82,39.76,51,38,51c-5.68,0-10.92-1.9-15.12-5.1
			c0.93-1.99,1.5-3.77,1.86-5.24c0.29-1.19,0.44-2.18,0.52-2.92c0.09-0.83-0.65-1.49-1.46-1.32c-0.73,0.15-1.7,0.4-2.85,0.82
			c-1.22,0.43-2.65,1.04-4.21,1.91C14.37,35.33,13,30.82,13,26C13,12.19,24.19,1,38,1z M56,28c0-1.66-1.34-3-3-3s-3,1.34-3,3
			s1.34,3,3,3S56,29.66,56,28z M55,19c0-1.1-0.9-2-2-2s-2,0.9-2,2s0.9,2,2,2S55,20.1,55,19z M45,9c0-2.21-1.79-4-4-4s-4,1.79-4,4
			s1.79,4,4,4S45,11.21,45,9z M39,36.39c0-1.1-0.9-2-2-2s-2,0.9-2,2c0,1.11,0.9,2,2,2S39,37.5,39,36.39z M26,21c0-2.21-1.79-4-4-4
			s-4,1.79-4,4s1.79,4,4,4S26,23.21,26,21z"/>
	</g>
</g>
<path fill="#102321" d="M16.624,49.838c1.094,0,2.185-0.445,2.973-1.319c1.478-1.637,1.347-4.171-0.29-5.649
	c-0.793-0.716-1.822-1.08-2.886-1.024c-1.066,0.055-2.049,0.521-2.764,1.315c-0.716,0.793-1.08,1.818-1.025,2.885
	c0.055,1.067,0.522,2.049,1.315,2.765C14.711,49.499,15.669,49.838,16.624,49.838z M15.142,44.5c0.358-0.396,0.849-0.63,1.383-0.658
	c0.035-0.001,0.069-0.002,0.104-0.002c0.496,0,0.968,0.181,1.338,0.515c0.818,0.739,0.884,2.006,0.146,2.825
	c-0.74,0.819-2.007,0.882-2.825,0.146c-0.396-0.358-0.631-0.849-0.658-1.382C14.602,45.41,14.784,44.897,15.142,44.5z"/>
<path fill="#102321" d="M64,26C64,11.664,52.337,0,38,0S12,11.664,12,26c0,4.506,1.177,8.904,3.387,12.798
	c-0.951,0.566-1.942,1.221-2.965,1.98c-2.555,0.129-8.216,0.916-12.073,5.192c-0.178,0.197-0.271,0.457-0.257,0.721
	c0.014,0.265,0.132,0.514,0.329,0.691l2.903,2.619C3.1,50.3,2.876,50.58,2.652,50.89c-0.298,0.414-0.236,0.985,0.142,1.326
	l1.263,1.14c-0.956,0.763-2.355,2.193-3.915,4.813c-0.188,0.317-0.188,0.712,0.003,1.028c0.057,0.094,0.127,0.176,0.208,0.245
	c-0.365,0.839-0.53,2.038-0.102,3.722c0.099,0.391,0.424,0.684,0.823,0.743c0.442,0.065,0.849,0.095,1.222,0.095
	c1.077,0,1.878-0.245,2.47-0.579c0.076,0.073,0.165,0.135,0.265,0.182c0.334,0.158,0.727,0.118,1.022-0.103
	c2.447-1.819,3.726-3.359,4.387-4.387l1.264,1.14c0.19,0.171,0.43,0.257,0.67,0.257c0.237,0,0.475-0.084,0.664-0.252
	c0.286-0.254,0.541-0.506,0.815-0.759l2.903,2.619c0.191,0.172,0.431,0.257,0.67,0.257c0.272,0,0.545-0.111,0.742-0.33
	c3.859-4.277,4.061-9.987,3.926-12.541c0.431-0.727,0.815-1.433,1.162-2.121C27.604,50.395,32.67,52,38,52
	C52.337,52,64,40.336,64,26z M9.485,43.19c-1.619,1.46-3.276,3.184-4.932,5.225c0,0,0,0,0,0l0,0l-2.017-1.819
	C4.676,44.612,7.343,43.655,9.485,43.19z M6.247,60.788c-0.152-0.252-0.416-0.43-0.728-0.474c-0.468-0.062-0.935,0.227-1.09,0.68
	c-0.043,0.122-0.427,1.1-2.378,1.002c-0.284-1.919,0.635-2.412,0.728-2.457c0.457-0.179,0.717-0.663,0.613-1.142
	c-0.069-0.32-0.285-0.575-0.567-0.702c1.203-1.716,2.19-2.576,2.745-2.975l3.357,3.029C8.583,58.349,7.827,59.418,6.247,60.788z
	 M12.374,58.165l-7.57-6.829c0.205-0.276,0.411-0.524,0.617-0.79l1.909,1.722C7.521,52.44,7.761,52.525,8,52.525
	c0.272,0,0.545-0.111,0.742-0.33c0.37-0.41,0.338-1.042-0.072-1.413l-1.993-1.798c5.212-6.192,10.35-9.149,13.923-10.546
	c0.401,0.497,0.868,0.994,1.386,1.461c0.518,0.467,1.059,0.881,1.596,1.23c-1.022,3.697-3.436,9.111-9.061,14.931l-3.107-2.803
	c-0.409-0.369-1.042-0.338-1.412,0.073c-0.37,0.41-0.338,1.042,0.072,1.413l3.023,2.727C12.853,57.702,12.627,57.932,12.374,58.165z
	 M24.067,39.017c-0.249-0.189-0.499-0.382-0.742-0.602c-0.244-0.22-0.461-0.449-0.675-0.677c0.516-0.148,0.974-0.259,1.356-0.339
	c0.096-0.021,0.155,0.017,0.191,0.049c0.037,0.033,0.078,0.092,0.068,0.185C24.225,38.022,24.162,38.488,24.067,39.017z
	 M17.32,59.934l-2.016-1.818c1.861-1.857,3.405-3.682,4.691-5.442C19.754,54.851,19.076,57.602,17.32,59.934z M24.122,45.55
	c1.467-3.394,1.97-6.128,2.134-7.711c0.073-0.714-0.188-1.398-0.719-1.876c-0.53-0.479-1.238-0.667-1.939-0.521
	c-1.395,0.291-3.685,0.955-6.464,2.386C15.089,34.23,14,30.165,14,26C14,12.767,24.767,2,38,2s24,10.767,24,24
	c0,6.555-2.644,12.502-6.919,16.838C53.667,41.664,51.868,41,50,41c-4.411,0-8,3.589-8,8c0,0.221,0.016,0.438,0.033,0.654
	C40.721,49.877,39.375,50,38,50C32.969,50,28.193,48.453,24.122,45.55z M44,49c0-3.309,2.691-6,6-6c1.313,0,2.577,0.438,3.602,1.214
	c-2.735,2.346-5.999,4.093-9.59,5.023C44.009,49.158,44,49.08,44,49z"/>
<path fill="#102321" d="M46,9c0-2.757-2.243-5-5-5s-5,2.243-5,5s2.243,5,5,5S46,11.757,46,9z M41,12c-1.654,0-3-1.346-3-3
	s1.346-3,3-3s3,1.346,3,3S42.654,12,41,12z"/>
<path fill="#102321" d="M22,16c-0.553,0-1,0.448-1,1s0.447,1,1,1c1.654,0,3,1.346,3,3s-1.346,3-3,3s-3-1.346-3-3
	c0-0.731,0.267-1.436,0.75-1.984c0.365-0.414,0.326-1.046-0.089-1.412c-0.412-0.364-1.044-0.326-1.411,0.088
	C17.444,18.606,17,19.781,17,21c0,2.757,2.243,5,5,5s5-2.243,5-5S24.757,16,22,16z"/>
<path fill="#102321" d="M23.816,26.246c-2.494,1.175-5.479,0.101-6.653-2.395c-0.236-0.5-0.832-0.715-1.331-0.479
	c-0.5,0.235-0.714,0.831-0.479,1.331c0.796,1.692,2.203,2.972,3.963,3.605c0.774,0.279,1.576,0.417,2.375,0.417
	c1.017,0,2.029-0.224,2.977-0.67c0.5-0.235,0.714-0.831,0.479-1.331C24.912,26.225,24.315,26.009,23.816,26.246z"/>
<path fill="#102321" d="M53,32c2.206,0,4-1.794,4-4s-1.794-4-4-4s-4,1.794-4,4S50.794,32,53,32z M53,26c1.103,0,2,0.897,2,2
	s-0.897,2-2,2s-2-0.897-2-2S51.897,26,53,26z"/>
<path fill="#102321" d="M55.65,32.427c-0.685,0.417-1.489,0.542-2.27,0.352c-0.533-0.132-1.077,0.198-1.208,0.735
	c-0.131,0.537,0.198,1.077,0.735,1.208c0.396,0.096,0.795,0.144,1.191,0.144c0.905,0,1.797-0.248,2.59-0.73
	c1.142-0.695,1.943-1.792,2.259-3.089c0.131-0.537-0.199-1.078-0.735-1.208c-0.534-0.133-1.077,0.199-1.208,0.735
	C56.815,31.352,56.335,32.01,55.65,32.427z"/>
<path fill="#102321" d="M53,22c1.654,0,3-1.346,3-3s-1.346-3-3-3s-3,1.346-3,3S51.346,22,53,22z M53,18c0.552,0,1,0.449,1,1
	s-0.448,1-1,1s-1-0.449-1-1S52.448,18,53,18z"/>
<path fill="#102321" d="M37,33.394c-1.654,0-3,1.346-3,3s1.346,3,3,3s3-1.346,3-3S38.654,33.394,37,33.394z M37,37.394
	c-0.552,0-1-0.449-1-1s0.448-1,1-1s1,0.449,1,1S37.552,37.394,37,37.394z"/>
</svg>
